<svg width="848.67538" height="469.44265" xmlns="http://www.w3.org/2000/svg">

 <g>
  <title>background</title>
  <rect fill="none" id="canvas_background" height="602" width="802" y="-1" x="-1"/>
 </g>
 <g>
  <title>Layer 1</title>
  <path id="svg_1" fill="#f2f2f2" d="m436.70324,467.03998a207.53414,207.53414 0 0 1 -40.54,1.96c-32.66016,-1.65 -64.78027,-11.15 -92.23,-29.01c-12.17041,-7.92 -23.78027,-17.65 -30.08008,-30.72c-8.55029,-17.75 -5.56006,-40.22 6.6499,-55.68a56.01494,56.01494 0 0 1 16.14014,-13.77c0.91992,-0.52 1.85986,-1.02 2.81006,-1.5a60.55749,60.55749 0 0 1 33.48,-6.13c19.57959,2.14 37.6499,14.1 48.08984,30.81c9.29981,14.9 12.54,32.48 14.4502,50.1c0.35986,3.32 0.66992,6.65 0.96973,9.96a146.37967,146.37967 0 0 1 -7.81006,28.06a9.81128,9.81128 0 0 0 -0.43994,1.36q3,6.51 5.71,13.14a11.55657,11.55657 0 0 0 5.53027,1.4l37.18994,0l0.08,0.02z"/>
  <path id="svg_2" fill="#fff" d="m393.13293,467.89002a2.03341,2.03341 0 0 1 -2.69971,-1.06c-0.16016,-0.38 -0.31006,-0.76 -0.47021,-1.14q-2.15992,-5.25 -4.52979,-10.4a316.78429,316.78429 0 0 0 -88.17041,-114.1a1.47787,1.47787 0 0 1 -0.61963,-1.37a2.03241,2.03241 0 0 1 2.81006,-1.5a1.92729,1.92729 0 0 1 0.41992,0.26a317.52029,317.52029 0 0 1 44.25977,43.95a322.504,322.504 0 0 1 34.91015,51.66q4.06494,7.5 7.71973,15.21c0.48047,1.02 0.96045,2.05 1.43018,3.07995q3,6.51 5.71,13.14c0.03027,0.07 0.06006,0.15 0.09033,0.22a1.47968,1.47968 0 0 1 -0.86039,2.05005z"/>
  <circle id="svg_3" fill="#448aff" r="39" cy="297" cx="260.50305"/>
  <path id="svg_4" fill="#fff" d="m256.63725,311.8776a4.04474,4.04474 0 0 1 -2.43372,-0.80842l-0.04353,-0.03268l-9.16526,-7.01725a4.07192,4.07192 0 1 1 4.95308,-6.46445l5.93657,4.55208l14.029,-18.29592a4.07178,4.07178 0 0 1 5.709,-0.75362l-0.08723,0.11844l0.08949,-0.11671a4.07649,4.07649 0 0 1 0.75362,5.709l-16.50151,21.52039a4.07356,4.07356 0 0 1 -3.23951,1.58914z"/>
  <path id="svg_5" fill="#3f3d56" d="m847.48469,469.44266l-846.294,0a1.19069,1.19069 0 0 1 0,-2.38137l846.294,0a1.19069,1.19069 0 0 1 0,2.38137z"/>
  <circle id="svg_6" fill="#2f2e41" r="28.93994" cy="107.00476" cx="165.54584"/>
  <ellipse id="svg_7" fill="#2f2e41" transform="rotate(-45 -296.5657348632813,93.49262237548827) " ry="8.98136" rx="11.97515" cy="393.82162" cx="15.70247"/>
  <ellipse id="svg_8" fill="#2f2e41" transform="rotate(-66.86956024169922 -226.11097717285148,293.8836059570313) " ry="11.97515" rx="8.98136" cy="586.66899" cx="134.24778"/>
  <path id="svg_9" fill="#ffb8b8" d="m246.13154,274.08706a10.74265,10.74265 0 0 0 -6.25285,-15.23973l-41.81616,-88.45907l-19.12791,13.41307l47.1186,82.7347a10.80091,10.80091 0 0 0 20.07832,7.55106l0,-0.00003z"/>
  <path id="svg_10" fill="#ccc" d="m207.65206,185.14633l-22.20855,9.93087a4.81689,4.81689 0 0 1 -6.60409,-3.09631l-6.54916,-23.35317a13.37737,13.37737 0 0 1 24.45588,-10.84991l13.00137,20.38209a4.81688,4.81688 0 0 1 -2.09545,6.98643z"/>
  <path id="svg_11" fill="#ffb8b8" d="m105.0845,282.85703a10.74271,10.74271 0 0 0 7.44458,-14.69441l39.60233,-89.47208l-22.65457,-5.706l-31.80415,89.74237a10.80091,10.80091 0 0 0 7.41184,20.13012l-0.00003,0z"/>
  <polygon id="svg_12" fill="#ffb8b8" points="94.289 445.033 105.809 449.227 127.47 406.789 110.467 400.599 94.289 445.033"/>
  <path id="svg_13" fill="#2f2e41" transform="rotate(-159.9934844970703 146.53489685058585,1180.9658203124998) " d="m411.5069,1843.22914l38.53072,0a0,0 0 0 1 0,0l0,14.88687a0,0 0 0 1 0,0l-23.64388,0a14.88686,14.88686 0 0 1 -14.88684,-14.88686l0,0a0,0 0 0 1 0,-0.00001z"/>
  <path id="svg_14" fill="#2f2e41" d="m121.53775,420.611a4.77367,4.77367 0 0 1 -2.04387,-0.45889l-13.23928,-6.2709a4.79861,4.79861 0 0 1 -2.46853,-5.9897l37.36377,-103.46818a4.81658,4.81658 0 0 1 8.66077,-0.84149l19.76235,32.93709a4.82207,4.82207 0 0 1 0.052,4.86807l-43.88711,76.802a4.84031,4.84031 0 0 1 -4.2001,2.422z"/>
  <circle id="svg_15" fill="#ffb8b8" r="24.56103" cy="113.91339" cx="166.46368"/>
  <path id="svg_16" fill="#ccc" d="m201.21069,225.58298l-43.488,-11.95955l-23.12961,-46.25868a14.576,14.576 0 0 1 13.03751,-21.09462l34.59941,0a14.557,14.557 0 0 1 9.73013,3.72135c9.28142,8.3145 28.78088,32.2848 9.43874,75.17337l-0.18818,0.41813z"/>
  <path id="svg_17" fill="#ccc" d="m146.77039,194.69207l-22.03343,-10.31358a4.81687,4.81687 0 0 1 -1.97428,-7.02163l13.39047,-20.22269a13.37737,13.37737 0 0 1 24.19805,11.41336l-6.92414,23.16293a4.81689,4.81689 0 0 1 -6.65667,2.98161z"/>
  <polygon id="svg_18" fill="#ffb8b8" points="173.428 456.629 185.687 456.629 191.52 409.341 173.425 409.342 173.428 456.629"/>
  <path id="svg_19" fill="#2f2e41" transform="rotate(179.99737548828125 555.8252563476562,1136.400390625) " d="m902.28826,1804.80484l38.53073,0a0,0 0 0 1 0,0l0,14.88687a0,0 0 0 1 0,0l-23.64389,0a14.88686,14.88686 0 0 1 -14.88684,-14.88685l0,0a0,0 0 0 1 0,-0.00002z"/>
  <path id="svg_20" fill="#2f2e41" d="m178.05681,438.60938a4.79132,4.79132 0 0 1 -4.69769,-3.81439c-3.524,-16.60391 -21.82634,-101.6514 -36.11121,-145.4588c-14.53417,-44.57049 10.2183,-64.87171 15.32784,-68.48853a3.7629,3.7629 0 0 0 1.25282,-1.51258l3.7122,-8.16606a4.83433,4.83433 0 0 1 4.39715,-2.82656l0.03006,0c27.82859,0.16621 37.184,8.93856 39.91435,12.70277a4.761,4.761 0 0 1 0.75368,3.92623l-17.60768,72.64473a3.75009,3.75009 0 0 0 -0.07291,1.37669l17.51827,131.89992a4.81781,4.81781 0 0 1 -4.22284,5.42l-19.62855,2.26417a4.92263,4.92263 0 0 1 -0.56549,0.03241z"/>
  <path id="svg_21" fill="#2f2e41" d="m140.65576,98.46458a33.40494,33.40494 0 0 0 19.09068,5.89985a20.47079,20.47079 0 0 1 -8.11361,3.338a67.35875,67.35875 0 0 0 27.514,0.1546a17.80736,17.80736 0 0 0 5.75978,-1.97824a7.28919,7.28919 0 0 0 3.55521,-4.7547c0.60365,-3.44852 -2.08348,-6.58157 -4.876,-8.69308a35.96737,35.96737 0 0 0 -30.22452,-6.03968c-3.37626,0.87272 -6.75852,2.34726 -8.9515,5.05866s-2.84257,6.8915 -0.75322,9.68353l-3.00082,-2.66894z"/>
  <circle id="svg_22" fill="#448aff" r="13" cy="192" cx="591.50305"/>
  <path id="svg_23" fill="#fff" d="m590.21445,196.9592a1.34825,1.34825 0 0 1 -0.81124,-0.26947l-0.01451,-0.01089l-3.05509,-2.33909a1.3573,1.3573 0 1 1 1.651,-2.15481l1.97885,1.51736l4.67635,-6.09864a1.35725,1.35725 0 0 1 1.903,-0.25121l-0.02908,0.03948l0.02983,-0.0389a1.35883,1.35883 0 0 1 0.25121,1.903l-5.50051,7.17346a1.35784,1.35784 0 0 1 -1.07981,0.52971z"/>
  <circle id="svg_24" fill="#448aff" r="13" cy="231" cx="591.50305"/>
  <path id="svg_25" fill="#fff" d="m590.21445,235.9592a1.34825,1.34825 0 0 1 -0.81124,-0.26947l-0.01451,-0.01089l-3.05509,-2.33909a1.3573,1.3573 0 1 1 1.651,-2.15481l1.97885,1.51736l4.67635,-6.09864a1.35725,1.35725 0 0 1 1.903,-0.25121l-0.02908,0.03948l0.02983,-0.0389a1.35883,1.35883 0 0 1 0.25121,1.903l-5.50051,7.17346a1.35784,1.35784 0 0 1 -1.07981,0.52971z"/>
  <circle id="svg_26" fill="#448aff" r="13" cy="274" cx="598.50305"/>
  <path id="svg_27" fill="#fff" d="m597.21445,278.9592a1.34825,1.34825 0 0 1 -0.81124,-0.26947l-0.01451,-0.01089l-3.05509,-2.33909a1.3573,1.3573 0 1 1 1.651,-2.15481l1.97885,1.51736l4.67635,-6.09864a1.35725,1.35725 0 0 1 1.903,-0.25121l-0.02908,0.03948l0.02983,-0.0389a1.35883,1.35883 0 0 1 0.25121,1.903l-5.50051,7.17346a1.35784,1.35784 0 0 1 -1.07981,0.52971z"/>
  <path id="svg_28" fill="#e6e6e6" d="m723.85909,382.53946c-0.13479,0 -0.21961,-0.00349 -0.24924,-0.00523l-16.13966,0.00174l0,-2.3797l16.198,0c0.375,0.01336 8.02654,0.22949 15.07646,-8.32488c10.50588,-12.74905 19.13345,-44.30968 0.57285,-122.264c-24.95721,-104.82061 -4.14182,-197.42377 5.9658,-232.37211a11.60395,11.60395 0 0 0 -11.16442,-14.8156l-241.03419,0a11.65594,11.65594 0 0 0 -9.3994,4.78438c-4.28183,5.89 -10.15787,17.20518 -13.8349,37.665l-2.34194,-0.42063c3.75663,-20.90428 9.82381,-32.55237 14.25205,-38.64338a14.04138,14.04138 0 0 1 11.32419,-5.76508l241.03424,0a13.984,13.984 0 0 1 13.45058,17.85646c-10.05562,34.76707 -30.76324,126.88976 -5.93676,231.16018c18.82147,79.05061 9.77327,111.29506 -1.13117,124.42465c-7.19254,8.65956 -15.11741,9.0982 -16.64249,9.0982z"/>
  <path id="svg_29" fill="#ccc" d="m680.42959,425.96896c-0.13479,0 -0.21961,-0.00349 -0.24924,-0.00523l-16.13965,0.00174l0,-2.3797l16.198,0c0.37706,0.01162 8.02654,0.22949 15.07646,-8.32488c10.50588,-12.74905 19.13345,-44.30968 0.57285,-122.264c-24.95721,-104.82061 -4.14182,-197.42377 5.9658,-232.37211a11.60395,11.60395 0 0 0 -11.16442,-14.8156l-241.03421,0a11.65594,11.65594 0 0 0 -9.3994,4.78438c-4.28183,5.89 -10.15787,17.20518 -13.83476,37.665l-2.34222,-0.42063c3.75677,-20.90429 9.82395,-32.55238 14.25219,-38.64338a14.04138,14.04138 0 0 1 11.32419,-5.76508l241.03425,0a13.984,13.984 0 0 1 13.45058,17.85646c-10.05562,34.76707 -30.76324,126.88976 -5.93675,231.16018c18.82146,79.05061 9.77326,111.29506 -1.13117,124.42465c-7.19255,8.65957 -15.1174,9.0982 -16.6425,9.0982z"/>
  <path id="svg_30" fill="#3f3d56" d="m654.77306,335.88001c-24.83007,-104.27 -4.12011,-196.4 5.93995,-231.16a13.99387,13.99387 0 0 0 -13.4502,-17.86l-241.03955,0a14.03109,14.03109 0 0 0 -11.32031,5.76c-9.73,13.38 -29.91993,57.75 -7.36963,180.52c12.05957,65.68 11.87988,110.46 7.93994,139.96c-2.21045,16.61005 -5.62012,28.37 -8.71045,36.30005l-0.32959,0.84a13.63942,13.63942 0 0 0 -1,5.05a13.83428,13.83428 0 0 0 4.52979,10.4a13.24271,13.24271 0 0 0 3.16992,2.2a13.41211,13.41211 0 0 0 3.03027,1.11a13.67578,13.67578 0 0 0 3.27,0.39l237.31984,0c0.03028,0 0.10987,0.01 0.25,0.01c1.52,0 9.4502,-0.44 16.64014,-9.1c10.8999,-13.13007 19.94971,-45.37006 1.12988,-124.42005zm-2.89013,122.81c-7.04981,8.56 -14.69971,8.34 -15.06983,8.33l-237.37988,0a11.63613,11.63613 0 0 1 -9.63037,-5.11a11.36694,11.36694 0 0 1 -1.60986,-9.43a9.81128,9.81128 0 0 1 0.43994,-1.36a146.37967,146.37967 0 0 0 7.81006,-28.06c5.64013,-30.75 6.68994,-78.2 -6.56983,-150.35c-22.37988,-121.86 -2.58984,-165.56 6.94971,-178.69a11.68138,11.68138 0 0 1 9.40039,-4.78l241.03955,0a11.60377,11.60377 0 0 1 11.16016,14.81c-10.10987,34.95 -30.91993,127.56 -5.96,232.38c18.56009,77.95 9.93021,109.51 -0.58004,122.26z"/>
  <path id="svg_31" fill="#ccc" d="m540.26249,200.40033l-124.186,0a9.51879,9.51879 0 1 1 0,-19.03758l124.186,0a9.51879,9.51879 0 1 1 0,19.03758z"/>
  <path id="svg_32" fill="#ccc" d="m540.26249,241.40033l-124.186,0a9.51879,9.51879 0 1 1 0,-19.03758l124.186,0a9.51879,9.51879 0 1 1 0,19.03758z"/>
  <path id="svg_33" fill="#ccc" d="m550.26249,283.40033l-124.186,0a9.51879,9.51879 0 1 1 0,-19.03758l124.186,0a9.51879,9.51879 0 1 1 0,19.03758z"/>
  <path id="svg_34" fill="#ccc" d="m557.26249,327.40033l-124.186,0a9.51879,9.51879 0 1 1 0,-19.03758l124.186,0a9.51879,9.51879 0 1 1 0,19.03758z"/>
  <path id="svg_35" fill="#448aff" d="m557.31515,126.49056l-89.2387,0a9.5188,9.5188 0 1 1 0,-19.03759l89.2387,0a9.51879,9.51879 0 1 1 0,19.03759z"/>
  <circle id="svg_36" fill="#ccc" r="13" cy="317.88152" cx="606.50305"/>
  <path id="svg_37" fill="#ccc" d="m563.26249,370.40033l-124.186,0a9.51879,9.51879 0 1 1 0,-19.03758l124.186,0a9.51879,9.51879 0 1 1 0,19.03758z"/>
  <circle id="svg_38" fill="#ccc" r="13" cy="360.88152" cx="612.50305"/>
 </g>
</svg>