<svg width="375" height="469" xmlns="http://www.w3.org/2000/svg">
 <g>
  <title>background</title>
  <rect x="-1" y="-1" width="377" height="471" id="canvas_background" fill="none"/>
 </g>

 <g>
  <title>Layer 1</title>
  <circle cx="214.24368" cy="192.00004" r="13" fill="#4285f4" id="svg_22"/>
  <path d="m212.95508,196.95924a1.34825,1.34825 0 0 1 -0.81124,-0.26947l-0.01451,-0.01089l-3.05509,-2.33909a1.3573,1.3573 0 1 1 1.651,-2.15481l1.97885,1.51736l4.67635,-6.09864a1.35725,1.35725 0 0 1 1.903,-0.25121l-0.02908,0.03948l0.02983,-0.0389a1.35883,1.35883 0 0 1 0.25121,1.903l-5.50051,7.17346a1.35784,1.35784 0 0 1 -1.07981,0.52971z" fill="#fff" id="svg_23"/>
  <circle cx="214.24368" cy="231.00004" r="13" fill="#4285f4" id="svg_24"/>
  <path d="m212.95508,235.95924a1.34825,1.34825 0 0 1 -0.81124,-0.26947l-0.01451,-0.01089l-3.05509,-2.33909a1.3573,1.3573 0 1 1 1.651,-2.15481l1.97885,1.51736l4.67635,-6.09864a1.35725,1.35725 0 0 1 1.903,-0.25121l-0.02908,0.03948l0.02983,-0.0389a1.35883,1.35883 0 0 1 0.25121,1.903l-5.50051,7.17346a1.35784,1.35784 0 0 1 -1.07981,0.52971z" fill="#fff" id="svg_25"/>
  <circle cx="221.24368" cy="274.00004" r="13" fill="#4285f4" id="svg_26"/>
  <path d="m219.95508,278.95924a1.34825,1.34825 0 0 1 -0.81124,-0.26947l-0.01451,-0.01089l-3.05509,-2.33909a1.3573,1.3573 0 1 1 1.651,-2.15481l1.97885,1.51736l4.67635,-6.09864a1.35725,1.35725 0 0 1 1.903,-0.25121l-0.02908,0.03948l0.02983,-0.0389a1.35883,1.35883 0 0 1 0.25121,1.903l-5.50051,7.17346a1.35784,1.35784 0 0 1 -1.07981,0.52971z" fill="#fff" id="svg_27"/>
  <path fill-opacity="0.6" d="m346.59972,382.5395c-0.13479,0 -0.21961,-0.00349 -0.24924,-0.00523l-16.13966,0.00174l0,-2.3797l16.198,0c0.375,0.01336 8.02654,0.22949 15.07646,-8.32488c10.50588,-12.74905 19.13345,-44.30968 0.57285,-122.264c-24.95721,-104.82061 -4.14182,-197.42377 5.9658,-232.37211a11.60395,11.60395 0 0 0 -11.16442,-14.8156l-241.03419,0a11.65594,11.65594 0 0 0 -9.3994,4.78438c-4.28183,5.89 -10.15787,17.20518 -13.8349,37.665l-2.34194,-0.42063c3.75663,-20.90428 9.82381,-32.55237 14.25205,-38.64338a14.04138,14.04138 0 0 1 11.32419,-5.76508l241.03424,0a13.984,13.984 0 0 1 13.45058,17.85646c-10.05562,34.76707 -30.76324,126.88976 -5.93676,231.16018c18.82147,79.05061 9.77327,111.29506 -1.13117,124.42465c-7.19254,8.65956 -15.11741,9.0982 -16.64249,9.0982z" fill="#4285f4" id="svg_28"/>
  <path fill-opacity="0.8" d="m303.17022,425.969c-0.13479,0 -0.21961,-0.00349 -0.24924,-0.00523l-16.13965,0.00174l0,-2.3797l16.198,0c0.37706,0.01162 8.02654,0.22949 15.07646,-8.32488c10.50588,-12.74905 19.13345,-44.30968 0.57285,-122.264c-24.95721,-104.82061 -4.14182,-197.42377 5.9658,-232.37211a11.60395,11.60395 0 0 0 -11.16442,-14.8156l-241.03421,0a11.65594,11.65594 0 0 0 -9.3994,4.78438c-4.28183,5.89 -10.15787,17.20518 -13.83476,37.665l-2.34222,-0.42063c3.75677,-20.90429 9.82395,-32.55238 14.25219,-38.64338a14.04138,14.04138 0 0 1 11.32419,-5.76508l241.03425,0a13.984,13.984 0 0 1 13.45058,17.85646c-10.05562,34.76707 -30.76324,126.88976 -5.93675,231.16018c18.82146,79.05061 9.77326,111.29506 -1.13117,124.42465c-7.19255,8.65957 -15.1174,9.0982 -16.6425,9.0982z" fill="#4285f4" id="svg_29"/>
  <path d="m277.51369,335.88005c-24.83007,-104.27 -4.12011,-196.4 5.93995,-231.16a13.99387,13.99387 0 0 0 -13.4502,-17.86l-241.03955,0a14.03109,14.03109 0 0 0 -11.32031,5.76c-9.73,13.38 -29.91993,57.75 -7.36963,180.52c12.05957,65.68 11.87988,110.46 7.93994,139.96c-2.21045,16.61005 -5.62012,28.37 -8.71045,36.30005l-0.32959,0.84a13.63942,13.63942 0 0 0 -1,5.05a13.83428,13.83428 0 0 0 4.52979,10.4a13.24271,13.24271 0 0 0 3.16992,2.2a13.41211,13.41211 0 0 0 3.03027,1.11a13.67578,13.67578 0 0 0 3.27,0.39l237.31984,0c0.03028,0 0.10987,0.01 0.25,0.01c1.52,0 9.4502,-0.44 16.64014,-9.1c10.8999,-13.13007 19.94971,-45.37006 1.12988,-124.42005zm-2.89013,122.81c-7.04981,8.56 -14.69971,8.34 -15.06983,8.33l-237.37988,0a11.63613,11.63613 0 0 1 -9.63037,-5.11a11.36694,11.36694 0 0 1 -1.60986,-9.43a9.81128,9.81128 0 0 1 0.43994,-1.36a146.37967,146.37967 0 0 0 7.81006,-28.06c5.64013,-30.75 6.68994,-78.2 -6.56983,-150.35c-22.37988,-121.86 -2.58984,-165.56 6.94971,-178.69a11.68138,11.68138 0 0 1 9.40039,-4.78l241.03955,0a11.60377,11.60377 0 0 1 11.16016,14.81c-10.10987,34.95 -30.91993,127.56 -5.96,232.38c18.56009,77.95 9.93021,109.51 -0.58004,122.26z" fill="#4285f4" id="svg_30"/>
  <path d="m163.00312,200.40037l-124.186,0a9.51879,9.51879 0 1 1 0,-19.03758l124.186,0a9.51879,9.51879 0 1 1 0,19.03758z" fill="#ccc" id="svg_31"/>
  <path d="m163.00312,241.40037l-124.186,0a9.51879,9.51879 0 1 1 0,-19.03758l124.186,0a9.51879,9.51879 0 1 1 0,19.03758z" fill="#ccc" id="svg_32"/>
  <path d="m173.00312,283.40037l-124.186,0a9.51879,9.51879 0 1 1 0,-19.03758l124.186,0a9.51879,9.51879 0 1 1 0,19.03758z" fill="#ccc" id="svg_33"/>
  <path d="m180.00312,327.40037l-124.186,0a9.51879,9.51879 0 1 1 0,-19.03758l124.186,0a9.51879,9.51879 0 1 1 0,19.03758z" fill="#ccc" id="svg_34"/>
  <path d="m180.05578,126.4906l-89.2387,0a9.5188,9.5188 0 1 1 0,-19.03759l89.2387,0a9.51879,9.51879 0 1 1 0,19.03759z" fill="#4285f4" id="svg_35"/>
  <circle cx="229.24368" cy="317.88156" r="13" fill="#ccc" id="svg_36"/>
  <path d="m186.00312,370.40037l-124.186,0a9.51879,9.51879 0 1 1 0,-19.03758l124.186,0a9.51879,9.51879 0 1 1 0,19.03758z" fill="#ccc" id="svg_37"/>
  <circle cx="235.24368" cy="360.88156" r="13" fill="#ccc" id="svg_38"/>
 </g>
</svg>